<mxfile host="app.diagrams.net" agent="Mozilla/5.0 (Windows NT 10.0; Win64; x64) AppleWebKit/537.36 (KHTML, like Gecko) Chrome/127.0.0.0 Safari/537.36" version="24.7.7">
  <diagram id="C5RBs43oDa-KdzZeNtuy" name="Page-1">
    <mxGraphModel dx="658" dy="447" grid="1" gridSize="10" guides="1" tooltips="1" connect="1" arrows="1" fold="1" page="1" pageScale="1" pageWidth="827" pageHeight="1169" math="0" shadow="0">
      <root>
        <mxCell id="WIyWlLk6GJQsqaUBKTNV-0" />
        <mxCell id="WIyWlLk6GJQsqaUBKTNV-1" parent="WIyWlLk6GJQsqaUBKTNV-0" />
        <mxCell id="WIyWlLk6GJQsqaUBKTNV-3" value="api/users/regiseter" style="rounded=1;whiteSpace=wrap;html=1;fontSize=12;glass=0;strokeWidth=1;shadow=0;" parent="WIyWlLk6GJQsqaUBKTNV-1" vertex="1">
          <mxGeometry x="30" y="220" width="120" height="40" as="geometry" />
        </mxCell>
        <mxCell id="eGuKOsCOo88TGVoZfxH2-1" value="User" style="swimlane;whiteSpace=wrap;html=1;" vertex="1" parent="WIyWlLk6GJQsqaUBKTNV-1">
          <mxGeometry x="30" y="80" width="210" height="119" as="geometry" />
        </mxCell>
        <mxCell id="eGuKOsCOo88TGVoZfxH2-6" value="+ id: AutoField (PK)&lt;div&gt;+&amp;nbsp;email: EmailField (unique)&lt;/div&gt;&lt;div&gt;+&amp;nbsp;username: CharField (unique)&lt;/div&gt;&lt;div&gt;+&amp;nbsp;is_moderator: BooleanField&lt;/div&gt;&lt;div&gt;+&amp;nbsp;is_manager: BooleanField&lt;/div&gt;" style="text;html=1;align=left;verticalAlign=middle;resizable=0;points=[];autosize=1;strokeColor=none;fillColor=none;" vertex="1" parent="eGuKOsCOo88TGVoZfxH2-1">
          <mxGeometry x="4" y="29" width="190" height="90" as="geometry" />
        </mxCell>
        <mxCell id="eGuKOsCOo88TGVoZfxH2-9" value="api/users/login" style="rounded=1;whiteSpace=wrap;html=1;fontSize=12;glass=0;strokeWidth=1;shadow=0;" vertex="1" parent="WIyWlLk6GJQsqaUBKTNV-1">
          <mxGeometry x="30" y="270" width="120" height="40" as="geometry" />
        </mxCell>
        <mxCell id="eGuKOsCOo88TGVoZfxH2-10" value="api/users/me" style="rounded=1;whiteSpace=wrap;html=1;fontSize=12;glass=0;strokeWidth=1;shadow=0;" vertex="1" parent="WIyWlLk6GJQsqaUBKTNV-1">
          <mxGeometry x="30" y="320" width="120" height="40" as="geometry" />
        </mxCell>
      </root>
    </mxGraphModel>
  </diagram>
</mxfile>
